HIERARCHY
ROOT Hips
{
	OFFSET	0.00	0.00	0.00
	CHANNELS 6 Xposition Yposition Zposition Zrotation Xrotation Yrotation
	JOINT LeftUpLeg
	{
		OFFSET	 0.126116	-0.065224	 0.014019
		CHANNELS 3 Zrotation Xrotation Yrotation
		JOINT LeftLeg
		{
			OFFSET	 0.000000	 0.569914	 0.000000
			CHANNELS 3 Zrotation Xrotation Yrotation
			JOINT LeftFoot
			{
				OFFSET	 0.000000	 0.544423	 0.000000
				CHANNELS 3 Zrotation Xrotation Yrotation
				JOINT LeftToeBase
				{
					OFFSET	 0.000000	 0.207117	 0.000000
					CHANNELS 3 Zrotation Xrotation Yrotation
					End Site
					{
						OFFSET	 0.000000	 0.207117	 0.000000
					}
				}
			}
		}
	}
	JOINT RightUpLeg
	{
		OFFSET	-0.124023	-0.065224	 0.008373
		CHANNELS 3 Zrotation Xrotation Yrotation
		JOINT RightLeg
		{
			OFFSET	 0.000000	 0.570047	 0.000000
			CHANNELS 3 Zrotation Xrotation Yrotation
			JOINT RightFoot
			{
				OFFSET	 0.000000	 0.544354	 0.000000
				CHANNELS 3 Zrotation Xrotation Yrotation
				JOINT RightToeBase
				{
					OFFSET	 0.000000	 0.207540	 0.000000
					CHANNELS 3 Zrotation Xrotation Yrotation
					End Site
					{
						OFFSET	 0.000000	 0.207540	 0.000000
					}
				}
			}
		}
	}
	JOINT Spine
	{
		OFFSET	 0.000184	 0.117403	 0.007763
		CHANNELS 3 Zrotation Xrotation Yrotation
		JOINT Spine1
		{
			OFFSET	 0.000000	 0.137269	 0.000000
			CHANNELS 3 Zrotation Xrotation Yrotation
			JOINT Spine2
			{
				OFFSET	 0.000000	 0.156879	 0.000000
				CHANNELS 3 Zrotation Xrotation Yrotation
				JOINT LeftShoulder
				{
					OFFSET	 0.080501	 0.160143	 0.002496
					CHANNELS 3 Zrotation Xrotation Yrotation
					JOINT LeftArm
					{
						OFFSET	 0.000000	 0.164363	 0.000000
						CHANNELS 3 Zrotation Xrotation Yrotation
						JOINT LeftForeArm
						{
							OFFSET	 0.000000	 0.364576	 0.000000
							CHANNELS 3 Zrotation Xrotation Yrotation
							JOINT LeftHand
							{
								OFFSET	 0.000000	 0.360812	 0.000000
								CHANNELS 3 Zrotation Xrotation Yrotation
								JOINT LeftHandIndex1
								{
									OFFSET	 0.000000	 0.086006	 0.000000
									CHANNELS 3 Zrotation Xrotation Yrotation
									JOINT LeftHandIndex2
									{
										OFFSET	 0.000000	 0.047237	 0.000000
										CHANNELS 3 Zrotation Xrotation Yrotation
										JOINT LeftHandIndex3
										{
											OFFSET	-0.004284	 0.038165	 0.000551
											CHANNELS 3 Zrotation Xrotation Yrotation
											End Site
											{
												OFFSET	-0.004284	 0.038165	 0.000551
											}
										}
									}
								}
							}
						}
					}
				}
				JOINT Neck
				{
					OFFSET	 0.000000	 0.176489	 0.000000
					CHANNELS 3 Zrotation Xrotation Yrotation
					JOINT Head
					{
						OFFSET	 0.000000	 0.077941	 0.001747
						CHANNELS 3 Zrotation Xrotation Yrotation
						End Site
						{
							OFFSET	 0.000000	 0.077941	 0.001747
						}
					}
				}
				JOINT RightShoulder
				{
					OFFSET	-0.080363	 0.159706	-0.000306
					CHANNELS 3 Zrotation Xrotation Yrotation
					JOINT RightArm
					{
						OFFSET	 0.000000	 0.164196	 0.000000
						CHANNELS 3 Zrotation Xrotation Yrotation
						JOINT RightForeArm
						{
							OFFSET	 0.000000	 0.365611	 0.000000
							CHANNELS 3 Zrotation Xrotation Yrotation
							JOINT RightHand
							{
								OFFSET	 0.000000	 0.360648	 0.000000
								CHANNELS 3 Zrotation Xrotation Yrotation
								JOINT RightHandIndex1
								{
									OFFSET	 0.000000	 0.069977	 0.000000
									CHANNELS 3 Zrotation Xrotation Yrotation
									JOINT RightHandIndex2
									{
										OFFSET	 0.000000	 0.052305	 0.000000
										CHANNELS 3 Zrotation Xrotation Yrotation
										JOINT RightHandIndex3
										{
											OFFSET	 0.009002	 0.042196	 0.000782
											CHANNELS 3 Zrotation Xrotation Yrotation
											End Site
											{
												OFFSET	 0.009002	 0.042196	 0.000782
											}
										}
									}
								}
							}
						}
					}
				}
			}
		}
	}
}
MOTION
Frames:    5
Frame Time: 0.03333334
-0.045949	 1.234185	-1.247101	-3.181203	 1.227077	-174.149200	 175.383000	 8.303644	-17.267520	 4.403400	-30.038360	 6.145975	 8.470082	 80.956100	-0.992493	 1.513528	 31.255750	-2.812245	 167.134800	 27.150930	 21.726840	-5.815070	-53.393630	 6.307324	 3.962624	 70.575840	-3.296765	-1.669072	 33.143780	 2.886456	-1.451658	 8.430972	-2.625788	 0.329943	 2.980259	-0.788523	-0.207104	-3.675774	-0.742066	-121.358500	 7.438995	 94.043180	 39.675200	 29.057870	-17.070270	 4.777726	-0.244355	 0.037991	 1.636379	 3.472081	 2.583759	 4.626173	 18.863080	-1.656032	-5.863935	 21.476590	 2.374304	 5.331775	 4.345796	-0.168934	-0.168654	-5.010901	-0.143398	-2.103067	-2.041022	-3.140254	 118.421700	-0.022395	-90.822100	-3.160946	 48.277260	-2.916755	-4.944227	-0.192323	-0.061435	-4.195263	 8.987182	-11.966880	-2.430897	 25.938630	 1.332473	 15.841340	 44.928810	-11.822850	-8.529222	 23.936430	-1.224071
-0.045781	 1.233248	-1.251469	-3.192283	 0.946006	-174.044100	 175.924800	 8.366519	-19.319650	 4.435467	-30.262080	 6.241430	 9.453115	 81.432760	-1.959090	 1.519928	 31.335330	-2.815260	 166.069700	 26.177050	 24.334390	-5.937081	-53.820360	 6.279647	 5.308779	 73.491740	-4.193905	-1.671864	 33.177150	 2.887853	-1.561674	 8.159803	-1.879049	-0.006688	-0.016627	-0.689895	-0.075560	-2.293752	-0.795924	-121.356400	 7.518643	 94.082740	 37.662300	 30.379400	-15.808510	 5.010743	-0.243193	 0.613760	 3.143843	 2.849190	 2.903033	 4.636461	 18.896830	-1.661519	-5.863843	 21.506240	 2.377576	 5.333048	 4.375618	-0.168392	-0.170112	-5.017673	-0.136698	-2.078415	-2.075470	-3.143794	 118.410700	-0.069393	-90.800030	-1.127288	 48.321970	-4.297063	-5.142721	-0.190062	-0.636798	-3.459335	 9.311942	-12.428300	-2.393563	 25.661170	 1.312484	 15.771220	 44.658090	-11.714860	-8.530268	 23.657900	-1.205510
-0.045317	 1.231644	-1.265353	-3.188967	 0.720334	-173.808300	 176.652100	 7.793318	-21.735600	 4.466648	-30.436690	 6.476926	 11.781850	 82.289830	-4.456962	 1.535470	 31.528040	-2.822614	 165.066200	 22.573330	 27.436170	-6.002613	-54.282060	 6.453146	 16.205290	 80.660470	-13.137130	-1.678634	 33.257980	 2.891247	-1.764193	 7.814857	-0.048132	-0.896359	-8.351539	-0.527179	 0.289934	 1.544551	-0.904398	-121.351500	 7.711537	 94.178540	 32.513260	 33.942560	-12.501430	 5.628417	-0.243063	 2.007504	 6.253392	 1.196128	 4.051601	 4.661397	 18.978550	-1.674838	-5.863632	 21.578040	 2.385503	 5.336132	 4.447835	-0.167082	-0.173638	-5.034075	-0.120474	-2.018722	-2.159147	-3.152313	 118.384000	-0.183138	-90.746680	 4.616548	 48.648530	-8.275508	-5.695079	-0.187333	-2.029775	-1.336331	 9.695723	-13.736930	-2.303928	 24.989040	 1.265083	 15.605630	 44.001970	-11.457230	-8.532383	 22.983230	-1.160735
-0.044570	 1.231744	-1.291098	-3.142403	 0.977859	-173.487100	 177.331800	 5.541115	-23.766380	 4.290232	-29.440150	 6.705575	 15.019370	 82.983350	-8.195698	 1.557921	 31.805100	-2.833321	 165.386800	 14.233550	 29.610110	-5.531789	-52.044670	 7.161582	 109.461100	 85.490330	-102.481000	-1.688387	 33.374160	 2.896151	-2.103411	 5.860511	 2.635104	-2.105799	-18.994860	-0.443297	 0.809146	 6.330192	-1.079001	-121.345200	 7.988861	 94.316310	 22.809540	 39.382090	-5.831960	 6.562649	-0.245314	 4.007894	 10.675850	-1.201678	 6.247278	 4.697303	 19.096030	-1.694064	-5.863344	 21.681260	 2.396906	 5.340561	 4.551656	-0.165206	-0.178699	-5.057657	-0.097151	-1.932877	-2.279113	-3.164395	 118.345700	-0.346770	-90.670030	 14.732940	 48.674350	-15.459970	-6.529019	-0.185048	-4.028739	 2.084810	 9.860828	-15.834730	-2.176929	 24.022340	 1.199377	 15.377710	 43.057500	-11.096170	-8.534408	 22.013010	-1.096772
-0.043762	 1.234300	-1.310470	-3.050492	 1.694454	-173.298100	 177.780000	 2.770916	-25.242300	 3.957919	-27.508340	 6.760331	 16.601450	 82.882160	-10.266230	 1.573070	 31.991140	-2.840600	 166.528100	 6.195170	 30.769620	-4.687999	-47.385140	 8.051111	 145.361000	 81.188890	-135.328400	-1.694951	 33.452190	 2.899461	-2.257127	 3.214186	 4.458058	-2.706120	-23.281730	-0.391114	 1.078950	 8.175481	-1.181102	-121.341300	 8.175094	 94.408840	 14.560600	 42.507450	 0.203826	 7.201496	-0.247451	 5.347184	 13.946970	-2.713339	 7.879415	 4.721452	 19.174910	-1.707025	-5.863163	 21.750570	 2.404567	 5.343534	 4.621370	-0.163951	-0.182092	-5.073493	-0.081490	-1.875236	-2.359875	-3.172419	 118.320200	-0.456646	-90.618650	 22.007060	 48.093090	-20.648500	-7.088882	-0.183532	-5.366899	 4.383554	 9.852001	-17.237460	-2.092837	 23.372990	 1.156829	 15.231100	 42.422580	-10.859610	-8.535109	 21.361370	-1.054075
